<?xml version="1.0" encoding="UTF-8"?>
<svg xmlns="http://www.w3.org/2000/svg" xmlns:xlink="http://www.w3.org/1999/xlink" width="238.11pt" height="238.11pt" viewBox="0 0 238.11 238.11" version="1.1">
<g id="surface1">
<path style=" stroke:none;fill-rule:nonzero;fill:rgb(5.097961%,6.666565%,9.020996%);fill-opacity:1;" d="M 5.667969 232.441406 L 5.667969 5.667969 L 232.441406 5.667969 L 232.441406 232.441406 Z M 5.667969 232.441406 "/>
<path style=" stroke:none;fill-rule:nonzero;fill:rgb(10.195923%,41.96167%,41.569519%);fill-opacity:1;" d="M 119.054688 34.015625 C 166.023438 34.015625 204.09375 72.085938 204.09375 119.054688 C 204.09375 133.980469 200.164062 148.652344 192.703125 161.574219 C 180.960938 181.910156 154.957031 188.878906 134.617188 177.140625 C 114.28125 165.398438 107.3125 139.390625 119.054688 119.054688 C 142.539062 119.054688 161.574219 100.019531 161.574219 76.535156 C 161.574219 53.050781 142.539062 34.015625 119.054688 34.015625 Z M 119.054688 34.015625 "/>
<path style=" stroke:none;fill-rule:nonzero;fill:rgb(76.861572%,56.861877%,23.136902%);fill-opacity:1;" d="M 45.40625 161.574219 C 21.925781 120.898438 35.859375 68.890625 76.535156 45.40625 C 89.460938 37.945312 104.132812 34.015625 119.054688 34.015625 C 142.539062 34.015625 161.574219 53.050781 161.574219 76.535156 C 161.574219 100.019531 142.539062 119.054688 119.054688 119.054688 C 107.3125 98.71875 81.308594 91.75 60.972656 103.492188 C 40.632812 115.234375 33.664062 141.238281 45.40625 161.574219 Z M 45.40625 161.574219 "/>
<path style=" stroke:none;fill-rule:nonzero;fill:rgb(41.96167%,24.705505%,62.745667%);fill-opacity:1;" d="M 192.703125 161.574219 C 169.21875 202.25 117.210938 216.1875 76.535156 192.703125 C 63.609375 185.242188 52.871094 174.5 45.40625 161.574219 C 33.667969 141.238281 40.632812 115.234375 60.972656 103.492188 C 81.308594 91.75 107.3125 98.71875 119.054688 119.054688 C 107.3125 139.390625 114.28125 165.398438 134.617188 177.140625 C 154.957031 188.878906 180.960938 181.914062 192.703125 161.574219 Z M 192.703125 161.574219 "/>
</g>
</svg>
